<?xml version="1.0" encoding="utf-8"?>
<!-- Generator: Adobe Illustrator 16.0.0, SVG Export Plug-In . SVG Version: 6.00 Build 0)  -->
<!DOCTYPE svg PUBLIC "-//W3C//DTD SVG 1.1//EN" "http://www.w3.org/Graphics/SVG/1.1/DTD/svg11.dtd">
<svg version="1.1" id="Layer_1" xmlns="http://www.w3.org/2000/svg" xmlns:xlink="http://www.w3.org/1999/xlink" x="0px" y="0px"
	 width="1942px" height="961px" viewBox="0 0 1942 961" enable-background="new 0 0 1942 961" xml:space="preserve">
<polygon fill="#FFFFFF" points="-1.695,375.2 179.725,391.928 285.971,307.964 316.041,217.982 356.134,79.991 444.338,107.995 
	454.362,235.997 514.501,325.999 618.743,430 743.031,476 807.18,48 941.572,0 1089.996,156 1089.996,503 1225.996,478 
	1225.996,310 1336.33,312 1380.47,480 1452.656,482 1468.703,564 1546.889,582 1637.101,555.828 1649.131,591.656 1725.308,591.656 
	1751.08,661.828 1838.996,592 1838.996,503 1935.996,486 1935.996,960.656 7.325,960.656 "/>
</svg>
